<mxfile host="Electron" modified="2024-04-15T08:18:52.524Z" agent="Mozilla/5.0 (Windows NT 10.0; Win64; x64) AppleWebKit/537.36 (KHTML, like Gecko) draw.io/21.2.8 Chrome/112.0.5615.165 Electron/24.2.0 Safari/537.36" etag="Aom4hvw3Kw-pxbG4V1m3" version="21.2.8" type="device">
  <diagram name="Page-1" id="2XWkQP5S-hDbL94sL5Vg">
    <mxGraphModel dx="2058" dy="1180" grid="1" gridSize="10" guides="1" tooltips="1" connect="1" arrows="1" fold="1" page="1" pageScale="1" pageWidth="3300" pageHeight="4681" background="#999999" math="0" shadow="0">
      <root>
        <mxCell id="0" />
        <mxCell id="1" parent="0" />
        <mxCell id="HT3JYzme7oOu0LbbBRVU-1" value="C++" style="rounded=0;whiteSpace=wrap;html=1;fillColor=#dae8fc;strokeColor=#6c8ebf;fontSize=52;" parent="1" vertex="1">
          <mxGeometry x="1030" y="270" width="370" height="400" as="geometry" />
        </mxCell>
        <mxCell id="HT3JYzme7oOu0LbbBRVU-2" value="QML" style="rounded=0;whiteSpace=wrap;html=1;fillColor=#f8cecc;strokeColor=#b85450;fontSize=52;" parent="1" vertex="1">
          <mxGeometry x="1420" y="270" width="370" height="400" as="geometry" />
        </mxCell>
        <mxCell id="xtKrBfCE6aJv3i5Ez66m-1" value="Canvas" style="rounded=0;whiteSpace=wrap;html=1;fillColor=#dae8fc;strokeColor=#6c8ebf;fontSize=30;" vertex="1" parent="1">
          <mxGeometry x="1030" y="60" width="770" height="160" as="geometry" />
        </mxCell>
        <mxCell id="xtKrBfCE6aJv3i5Ez66m-2" value="" style="shape=image;verticalLabelPosition=bottom;labelBackgroundColor=default;verticalAlign=top;aspect=fixed;imageAspect=0;image=data:image/png,iVBORw0KGgoAAAANSUhEUgAAApEAAAIOCAYAAADgG1ZdAAAAAXNSR0IArs4c6QAAAARnQU1BAACxjwv8YQUAAAAJcEhZcwAADsMAAA7DAcdvqGQAAD1PSURBVHhe7d0HgBx13f/x7+7V3OUu5dIb6YUEQgKIYMHQRHgQBP+KIEgV9VEfxQefv4oiSvkrWB6Rx/6oIFUEFAUUTCxUQ4dQ0kNyKSSXcnfJ9dv/fH/zm7u9vrNldnb3/crNzu83s2V2dnb2k9+0yKJDDo1JP2KxfgY7w/oOdYb1+wzwLckZyexH9rD0DS5i+wAyISvfsEh+fa/dt9P3PbmD+xkeN6xPiMxYeEwhaSb/SGROFj6VHFoQWGaB8Or7sxhiWZnYnJpDBSGlT8RH6O0vULqD+j6HhsmuENlveFR9AmQ/4bHPffJBFt5Rki+Zf/O+0OXQJ8rClzmJr/fhGzM3bLLyiST9ovm1/Jh30ysk9g6T/d1HDRwi+wmGidxnYInfs48UHpqsLLxkFhTGjC2MzxJAmPX9+Q1A4C+alXeZU5KeQynN2sQebO7lM0xGFi46pO9vbK9wOHh4tCWn1+teOS7Jd5PCTMiv+ZcJWZhDBfKhsOwhW3r+ZIVcViY2p+ZQ4FKaO0k/OH8+E/NOum8Mt9rzPcaHyfjxfUNkr4DYNz96A2zf6fW6ywASu1e/knxoCq+YJcG+0dybP4Uihz4ZFqLw6bnuR7+YSYPJytxJ+kVz67MM39t0n9jcdt8Y8QfQqPggqcw+kfEhsmeLY68A2Stc2j+rdz0sUpiiJB8avnkwmODnTypya95mA3MIhaTnDxz6SnoOBf/AnNIrW/kUvnkUHw67i/F1t6z6BEkTInsERNUzQPZufeyu9n3cgAYZNZQUHpq8+BngQ1amNSuSfKcFMoMKZzkAkIjun90AJf2iWZnawGVn9iT34My9ZPdIU7KBsU9YNDd9x5kQOWALZI+Q6JTcP1PumbF61/sz5B0GluRDU3jFFBTK+ywUOTR3c2xBYLnNjO7Vfp7LyhstmLkbuKTnbEofSfCfZxjfpxlrA6LyQqLteTc97td1n4ULF8VlxrjVeq8AGXcnKS4pkcrKCiktKZXSslIpKirK6C9C/JSgHzk1e4KfWJYeANnm/vQGLTuvmpQcmtRssJEuM5yn7ujokJaWFmltbZMDBw5Ie1ubM9x9TS8wdt3a4SpysBMitZBogKyqqpIRI0dI3Z4maWpuk+bWDmlr67B3AJA53V/cnsIQk+OnLQzTAwDoNtDvh4pJSUmRlJcWybDyEhkzukL27t0nDfX1XYFxoCBpQ2TPoNj9E9A9XEPmmDFjnCHFsm1ng5NWCY5A9rhfYFcYQps3PWGYFgBAX/G/G711r7tLnUA5cWyVFBd3yltv7bRDvdxow6O5iUg0Pij2HyC1H5PqqiqnVCybavcSIIGs0y+n1wVFVxsDdUFPCwBgYPHrZ89g6+ju+7e2dcqmrfukvT1qtj67W6q7M2HXrTMg6g7sxRno3Vn7JcXFZhO2tkACKETxKyIAQHj1Xl/3DpJeN7htOxtl5IgRJgPGZ8L4x0Zt3xnhjHRLXaPdO4tUDq80+0DSAgkUoqECZPcKBQCQKwZfd7e2dciuPQekorLC1L1M2BUonVs3RHpjlDcy7t56FLYeRAOg0BAgAaBQNTW3mwzo5URv07a36jchsutnwBlpyt4AW9fT+OhR2ADymQbG3t1gutYcAIDQSn5drdmvrKzMZkP7PE7Pq0cWLDjYDtbWR3dgj7rTn37QdFm15i0zdCDVVeVSUty1dTxhbe2dUt/QbGsAsmOowNgfd00BAAib+HX6YOvqodf9C+eMlY2bNjqlSNcR2l39+U6I1GLPo2+8utufPv0geXVN92He/fnejVfLrNmzbK1/3sW8a7fv6nqd/fV1cvl/XiXRaJE7AEDAhl6J9GW/wACAEIpfrw+1vh78N+DgOWNk48ZNcQHSvb/2eu4T6b1OXIBM1MgRVbJw/pxBu4PnzTbdice+XU56j9uNHVPjvE6nfRYAwRp85dG/xNcLABBW3/z6F+XNtc9I7Ybn++10nN4nbJ5Ycb8c8/YjbK0vHff48nttTSWznu+tbyOj/hT43/48gKKiqGx68y3579selx/c8ZjcdNc/5Yf3/ENuvu9vsmH9Fmna3yA7d2w33YHGBrn1zy+ZLlEXX/CRHh/uNVf/lx2TfTot8dP22Irf2zGZ88C9t/R4zWTnh06rzttEpfJaA9HnzAz94vTX5aJ0TH/8c6T6XACQ2z720Q/Jiad8WBYsfne/3buP/4C5T9j855eukR9+/9p+g6QO03FXfPlaO8STmfV92kKkXtcxEimSDfsaZWNDg2w6UC+bW/bJlra90tbWaVobdW9L/ecpKk3sYB0NLd+46osyecaSrm7xIQvt2HB47vmXu6ZN/fJn3zf9TPBCavz8uPD8szP6mh59rSuv+patZZa+H3/vKdGANNT4dEnH6/T3HMk8Z6rT4cn3VkhvfnsdgHxVVFQk27a/JfX1Df12GzdtNvcJmyeeekY+/bmv9AmSXoDUcU889awdGi/967S0hciOTneT9NiaMomUtsu+9nrZ2VwnO5rcfSkjvX57ykc1S8WYA7Y2OA1IXjjznHbm+bYUPr/89Z0yZ/YMW0svrxWw9/s/80MXy0knHGtrhSbZH3zvcck+fiDper50TVM631s+i59PusLK98AMIFf1DpJDB8jMSFuI9Fa3r+3YIhv2bpO97XukSRqkNdJohsfs+llbLFXlyEapGO6OG4yGJm3lG4i2VMVv1j3qyKVdw7V75bm/meHa94brpmCP3t/bnKotfN7zePdX8ZuOE20Z27Nnn+nr83jTpOLrWvam39uk7L1O/LB42gK7Zu0GW+v29MrnzGvqY/T545/bey/e88a///4MNo/ipz9+fnnh1rufJ77u3Ve7RKZBQ7F2ev/lf76nzzS57yvi9FeY16/d8JzpHltxv3snx1FHLukarp3WMysdgU2fIx3Po9L1PKpQQhXhEUD4xQfJ5ANkar8Radyc7WpyQmPJsDYpKW+T4rJWKXE6w1kvewFSzR87VWaPnGlrg9tVt9uW+rrw0s91bdL95S13ypVf+pwdIyaAXHzZ5Wbc3n37TNDQ+y9dcoi9h8gnPn6+/OXRv5vyO5ed3vVcGza+ae6voWzUqBFdw/XxQ/n8Zy+TF19eZWuDG1Mz2jzvL351hwlF2qLovZY+T39qt26zpZ70PXp0mpU+jw7XIOY9r75/Lwj2Z7B55NF5o6HVe85ENnF799VuxvRpQ06DvqZ2ev8vXXmdeYxHp+n+Bx62NZH3vPto535LTaeXafJC7b13/6JruM7b73z7KjM8PXR57t31Z6Dh8YZ6jt76u1/8c3hdumQjWKX7PSSCAAkkI76RYLAO6eRn/ajrNu289Wp61q9OiLR7Kca8vRW7+27P6dtiIkx4dLqSMu3iQqQzrfFPM3vULNMlQoPWYLyF88Lzz7ZDXBpAtIVOaevd5EkTTVlbNr2QceThh8mPf+q2cGlg9J7LC1Ea7jS8DNVypvf3Hrvy2RcS3m/wmuvdlk0NVBr8NPR4z6P1wYJWbxqePBrwvMCr7z0+BGpAXrRwnq31b6B55Hngj4+Y95xoy6zyWka99+aHfo4ahi++4BynFjHTFD+Pv/DFq21JTLhcfMjBXS25Xiukztv4IJqa1L98rvR8kdM3PWGRqffjze/+OgDJim8kGKxD+hzz9sO7WiC7N20fbsfG8xHi+qMPN0/h3HSdtcfNimlrifS4AdINj6XaL3VDpHceSldMWtvapKlp6JOMe2FlIBpIvNY7bYlMxP1/eEje8+5jTMjQQKUBRcva8uct6PGb0LWuLYv6WgOFpvgDaxJprexPfMue13kh2KPTodPemxc2NfSmQ3/zKJ7WdfqUzhcvcLr6/iDrfPNaXbXzNvcnxv2R/+Wv75Iz3n9y1zQNxmu91vt5LZFel7pkAkd/j0k1uHiPT/V5CgXzCUB+6L0PpHaDB8nMSF+IdNbPLS1NctSYWXLEqDmytHquHFa5QA4dttAMd+/irsQ1T3Z2dnYdjDMYDSsa0Lz9+jzxLYNewOkvXPVHg5a22l34sbNNWPLEbw7uHVy11etrV3/b9wEz+pyn/duJpqzhZ6AWOO899Axjfel06LT3bhnVVrb7H+h+L6kaaB71poFZw7t7tHyka79M1fu9eMFusPkQTzfbx7dCe63CGiTv/0P3pmylm7c9F57/YXns8X913d+bnsF5/8EZSrqCSNieZyhBvY7H+09nop9LugT9PgFkS0dHh4weNdLW+powYZy5T9gMdBBNNoJk2kKk5sEF86bKZctOkMuOPUkufdf75JJ3vV8ufsfpMn/eFKmoqJRx48bKaCcUlJSWmBAZjSa2wtYjkXUTsbcpVDsv2GjA9Ib5ad3S59OQ5LXceaHJey6vJVIDiDdMTzMUv9k0EXqktm5m18drIBtsGnX/Te++2g10vslFS99jQph3P+1UopvQE9V7HsXTgOi9tk7zaWd+zAzXTcnfuOoKMzz+NEy6Odw7SGao+eDxWqHjD4jRadJg2HuaNGx6m6110703/mtX32Cnxx33wL2/NsN7CipAeo/P1aASP/3xXTqk+/kAYHC//s3d8o+/3uf8NnT/lsZ3/3rsQXOfMNGrxdxwnbv5Wg+s6c0Lkjdef6UdklmR+QsW2C3NcftEmoLtOzfTp0+XV9cOftnDz332Ylly2KG21lc0GjWdpvr4K+G89OIrcsN3/0eiRSV2CJLhHc2s4UxDZrD6++Hv/owTN3SA+OXPvie1W7f3CMx6dLYG8KdX+t1p2880Em4Gl8znHS9+/qb6XPGS/dzSOQ0AkD4aJLtzVCLruPj1mf914sGz9bKHG81DzRZl5/XdKx86/XSFSHMy8U4nINp6onQ6ItEiZ4LSvnsmAtN7oUxmKUiMtib23q8x8yEy8ekrbP3Nz2Tmnd/lp7d0fF6pTgMADMZbTwWxvot/Df/rx8FCZNqSm4ZAbU0s8tnpYwiQuU4X0PjOj8QWaNMC6QTIX95ylx0SFP9fuMKl86p3l4zej41/vkS6VPldhgHAr2R+L3tLdH2XzvVjT2lriQT8S/8C7U/vL3C2pwfZ1Xt5AIAw8fMb5a3PUv9dC6QlEvAn9QU7vcI2PQgWARJAvghufUaIRBYQIBE2LAMA8oW3Psv8eo0QiQDoghzfhUXYpgfZFb+M+ukAIAh+WhiDWTdF3f0f4ybNFLr3h/QzyUBP/MiiEHjLOcs6gPxko2F3JrQFWiKRIfygohCx3ANIh9z4zykhEhnADykAAN3CHwiTQYhEGnhfjvz8kgAAkBrd/tu1Mdin8P6+RubNX2DeVdcldMx+kD33iZwxfbo88shfzGjAFZPm9nppbN0qTe27nfLePl2Ldh310hFrk87OdqffKp1adjpv2CVLV9rnAwAAYXPiiSfJho0b3QhrzhFpzhbplgmRGIheyrK+ZbPsad5gwmJDa61T32rLW6Wt44C9Z/IuXfqsLQEAgLAhRGJI2pq4u2mN063t6u9pXicdna32HplBiAQAILwIkeihM9YudU2rZUfji7Jj/wuy3ekfaMvOZS0JkQAAhNdgIZIDawpAe2eLbKl/Sp7Z+iP505rL5NcvHiv3v36ePLnlRlm/59GsBUgAAJC7CJF5SvdlXLXzTnl47Wfl1peWyUNr/12e3/5z2drwjBMqm+29AAAAkkOIzBN6xPPm+ifkic03yF2rzjCdljfXP25aIgEAANKJEJnDdN/GLfVPyj82fUN+89JJ8vDaz5jWR22FBAAAyCQ3RHoH1ZhDakyvu2xuvfHINj3tTm3Dv+Sfb14rt718kjy09tPyRt3vzfkYAQAA0smkQXugtcmDcWVaInPEvpY35V+1N8ntr5wsD675pLy+615pbt9nxwIAAASLEBliui/j2t0PyR9Xf1zuXvUBeXHHr+RAW50dCwAAkD2EyBDa07TOHBRz28vvlRUbr5RtjZxLEQAAhAshMjRiUtvwtNnH8Z7XPmQOkGntaLDjAAAAwoUQmWV6hLVusr73tXPlwTWfMkdbAwAAhB0hMkvaOg7Iy2/9Ru5c9X6zybqu6Q07BgAAIPwIkQHTq8W8tOMWJzyeJk9t+Z7sb91hxwAAAOQOQmRAOjpb5ZW37jDh8ena/5bm9r12DAAAQO4hRGaYXo7wtV33yF2rTpcnt9woTW277RgAAIDcRYjMmJhs3Ltc7n71LHnszetlf9tbdjgAAEDuMyGy66KGphB/6UOn5/S7xiMhdU2r5Y9rLpNH1l8hDS21digAAEDu8XJgdyZ0C7REplFz+x5zTev7XjtXtjVwgnAAAJC/CJFpoOd61NP13LXqDHNN65h02jEAAAD5iRCZol0HXpf7Xz/fnK6ntaPRDgUAAMhvhMgk6fke9VQ9979xHicKBwAABYcQmYStDSvld6992Jw0PBZj0zUAACg8hEgfWjv2yz82fVP+tOYTUt+yxQ4FAAAoPITIBO1ofFHufe1seaPufjsEAACgcBEih6BHXj+z9UfywOpLpKF1qx0KAABQ2AiRg6hv2Sx/WH2RPL/955y2BwAAIA4hsl8xWV33B/ndax+RnftX2WEAAADwRM01bAz3coem6tyYoW7F/BWK9s4W+fumbzjd1U65yQ4FAAAoQG4gtJlQi24u1BotkXEaW7fJA6svMq2QAAAAGBgh0qqtf1rue/1ccwUaAAAADI4QKTF5Yfuv5KG1n5bm9n12GAAAAAZT0CFS93/864YvycqtNzlRkqOvAQAAElWwIbK5fY88uOYTsn7PI3YIAAAAElWQIXJf8ya5/42PyY79L9khAAAA8KPgQuS2xufk929cIA0ttXYIAAAA/CqoELl298Py4JpPSUtHvR0CAACAZBRMiFy1805ZsfEr0hlrs0MAAACQrIIIkXoKnyc232BrAAAASFWeh8iYPLP1f8wpfAAAAJA+UXslRPciiO5Nl34G5ZCYPLnlu/L89l/YOgAAAHxzsmB8HHTLsfxsidQTh//zzWvllbdut0MAAACQTnkYImPy2JvXyeu77rN1AAAApFuehUh3EzYBEgAAILPyKkQ+s/XHbMIGAAAIQN6ESD2Nz/Pbf25rAAAAyKS8CJF6InFO4wMAABCcnA+ReilDTiQOAAAQrJwOkdsbn5e/b/q6rQEAACAoORsi9zVvkr+sv5xrYQMAAGRBTobI5vY98tC6z0hLe70dAgAAgCB1hUi9hE3MXMcmZsp2iCmFSXtni/xl3eXS0FJrhwAAACBTunKhExS7yznXEhmTv2+6Snbsf8nWAQAAkA05FSJf3PFrWb/nEVsDAABAtuRMiKxteFpW1t5sawAAAMimnAiRja3bZPmGL0lMOu0QAAAAZFPoQ6QeSPPI+v+U5vZ9dggAAACyLeQhMiaPb/5/suvA67YOAACAMAh1iFxd94DT/cHWAAAAEBahDZH1LZvl8c3ftjUAAACESShDZGesXZZv/Iq0dzbZIQAAAAiTUIbI57f/THbuX2VrAAAACJvQhcgdjS/K89v+19YAAAAQRm6INBfNdq+G2NWzg/Qqid6VEjOttaNRVmy80nk1zgcJAACQbW4GNIHQlAxbDlVL5FNbvicNrVttDQAAAGEVmhC5tWGlvFF3v60BAAAgzEIRIts7m+Wfb15jawAAAAi7UITI57b9VOpbttgaAAAAwi7rIVIvafjSW7faGgAAAHJBVkOknlT8H5u+IbEYR2MDAADkkqyGyFU775S6pjdsDQAAALkiayGyqX23PLftZ7YGAACAXJK1EPnM1h+Zk4sDAAAg92QlRNY1rZY3dnFOSDhKS0VqakSmTxc55BCRY44Ree97RT74QZGLLhK55hqR3/5W5KWXRJqa7IMAAEC2RebOmx9ziF7nUC9h0195xswZ8tdHHzUPSF1M/rjmMtnW8Kyto5BdevhztpSASETkoINE5s1zu6VLRY47TmTqVHsHAACQTsefcIKsX7/B+QmOuJ0OtOXAWyI37l1BgERy9D81GzeK/PnPIj/4gcgFF4hMmyYyZ47Ixz8ucuedIjt22DsDAIBMCjREdsba5Kna79sakCZr14r87GciH/mIyIQJIgsXinzhCyIvvOAGTwAAkHaBhsg36n4vDS21tgZkyKuvinz3uyJLlogceqjIDTeI1LLcAQCQToGFyI7OVnl+2y9sDQjIK6+IfPGL7n6TJ50kcuutIvv325EAACBZgYXI13bdK/vb3rI1IGC6WfuRR0TOP989Evzaa0X27rUjAQCAX4GEyPbOZnlhB62QCIldu0SuvNI90vsrXxHZudOOAAAAiQokRL6687fS1Lbb1oCQqK8Xue46t2Xy859nv0kAAHzIeIhs6zggL+74pa0BIXTggMj3vy8ya5bI1VeLNDfbEQAAYCAZD5Gv190rze37bA0IsZYWka9/XWTRIpGHH7YDAQBAfzIaIjtj7fLyW7fbGpAj1q0Ted/73Esvbt5sBwIAgHgZDZHr9zwi+1u5gghy1O9+J7JggXueyfZ2OxAAACgnRLpX9Oj/1r2Gth3gU0xe2nGrLQM5Ss8pqeeZ1Gt0c+ANAKDQdGVApxCzudCIZa4lsrZhpdQ1vWFrQI775z9FDjvMvW43AADIXIh8accttgTkCT2/5Mkni3z5y2zeBgAUvIyEyD1N62RL/ZO2BuSZ668XWbZMZMsWOwAAgMKTkRCplzgE8tpjj4ksXSryzDN2AAAAhSXtIbK9s0XW7P6TrQF5TC+XqC2Sek1uAAAKTNpD5Ma9y6W1o8HWgDzX2Chy6qkid95pBwAAUBjSHiJfr7vPloAC0dYmcs45IjfdZAcAAJD/0hoi97W8KdsanrU1oIDEYiKf/azIlVe6ZQAA8lxaQ+Qbu35vS0CBuvZaka9+1VYAAMhfaQuRnbEOWbP7AVsDCpgGSTZtAwDyXNTd8mY3v/UpJ25743NyoK3O1oAC9x//IXLXXbYCAEA+cUKi85e2lsh1e/5iSwDMfpHnncfpfwAAeSstIbIz1i4b9/7V1gAYetT2mWdyQnIAQF5KS4jc2vCMNLfvszUAXfQ8kqecwiUSAQB5Jy0hcj2bsoGB6ZVtPvIRkfZ2OwAAgNyXcojsjLXJhr3LbQ1Av/Ra21/7mq0AAJD7Ug6RtQ0rucwhkIjrrxf5859tBQCA3JZyiNy873FbAjCkj37U+Z9Xra0AAJC7Ug+R9YRIIGG7drnX2Wb/SABAjkspRNa3bDYdAB/+8Q+R733PVgAAyE0phUhaIYEkXX01p/0BAOS01ELkvidsCYAv+/eLfP7ztgIAQO5xQ2T85bLtTVfZXFzb1Hpo72yRrY0rbQ2Ab/fcI/Lww7YCAEAYORlQs6D757LlpFsitzc+Lx2drbYGICmf/rRIc7OtAACQO1IKkQBStG6dyLe+ZSsAAOSOpEPkjv0v2BKAlOhJyDl3JAAgxyQVIjtj7fLW/ldsDUBKWlpEvvMdWwEAIDckFSLrmlZLeyf7cQFp85OfuCciBwAgRyQVInc0vmhLANLiwAGR73/fVgAACL/kQiT7QwLp98MfiuzbZysAAIRbUiFyOy2RQPppgLz5ZlsBACDcfIfIprbdcqBtp60BSCu9prZezQYAgJDzHSJ3N6+xJQBppwfX3HefrQAAEF7dIdJc3tBe0sbeuEN62t201pYAZMStt9oCAADh0JUJnbzolf23RDbREglk1KOPimzdaisAAIRTEiGSlkggozo7RW6/3VYAAAgnXyEyFuuUPc3rbA1Axtxyiy0AABBOvkJkfctm6ehstTUAGfPyyyIvciotAEB4+QqRe5o32BKAjOMAGwBAiPkKkY2t7OwPBObhh20BAIDw8RUiG1prbQlAxq1aJbJjh60AABAuPveJpCUSCNTf/mYLAACEC5uzgTBbvtwWAAAIFx8hMiYNtEQCwSJEAgBCygmR8Zc3dEvm1t64/0Sa2+ulrfOADgQQlLVrRTZvthUAAIKlGbA7HbolT8ItkWzKBrJkxQpbAAAgPBIOkU3tu20JQKCee84WAAAIj4RDZHP7XlsCEKg33rAFAADCgxAJhB0hEgAQQoRIIOw2bhRparIVAADCgRAJhF0s5h6lDQBAiBAigVzAJm0AQMgkHCJbCJFA9hAiAQAhk3iI7Ki3JQCBW7/eFgAACIeEQ2RHrM2WAASunv/EAQDCJeEQ2dnZbksAAtfQYAsAAIRDV4g0V0M0l0V0r4vYVbf9jlirrQAIHCESAJANXiDUP7dn6zEfLZFszgayhxAJAAgZQiSQCwiRAICQ4cAaIBcQIgEAIcOBNUAuIEQCAEImMmfu3JjZUdK9MX3dabKr7vybOWOmnHNjvVPqdB+FQV181PMSbde5CKRHZ0lEfvHUElvDYCLO/40vWbrS1gAAqTjuuONl/Yb1zro14qxgnVvT6bpW17YJikaLbQlDaasosiUgPVpZphJWFC2xJQBAJiUcIosirJgT1VaZ8GwFEsIylbgo6yoACETiLZGsmBNGSyTSjWUqcayrACAYhMgMaKXVCGlGS2Ti2GoCAMFI+JepKFJqSxgKrUZIN5apxEXZJxIAAhE1h2K7N/ZWxdXtQA6sSRytRkg3lqnE0RIJAOnXIyO6fxxYkwltlbQaIb1aWaYSxq43ABCMhENkWVG1LWEo9ZPLbAlIjwaWqYSxrgKAYCQeIotH2hKGsm86P/hIr70HldsShlLOugoAApFwiGTFnDh+8JFu/MckcayrACAYhMgMqJ/m/OBHbAVIlbMs1U8lRCaKdRUABIMQmQHtZVFpmMgpkZAeDZNKzTKFxLCuAoBgECIzZB+btJEm7B7hD+sqAAgGITJD+OFHuvAfEn84CBAAgpFwiBxWPNqWkIi6BcNsCUjNrvkVtoREsK4CgGAkHCKHl06yJSRi6xFVtgSkZuuRw20JiahiXQUAgfCxObtaSqK0iCSqcUKp1E/hiFqkRo/K3j+eg7QSVVJUIWXF/AcOAIIQNddC7L4goiuu7hb1NiJVZfwP34+tR/JjhtSwDPlTVTrZueX8WgCQTrH4nBhXTrglUrFJ2x8CAFJVyzLkC5uyASA4vkJkNS2Rvmw7gn3ZkBqWIX/YWgIAwfEVIt1NRUjUgZoS2TOT07MgOXtmlUvT6BJbQyJYRwFAcNicnWFbjqm2JcCfzUePsCUkqqpsoi0BADLNV4gcVT7DlpCoNafU2BLgz9pTOd+hXyNZRwFAYHzuEzlViqKcbsSPurnDZM8sTjwOf3bPHmaWHSSuOFom1aVTbQ0AkGm+QmQkEpVR5bNsDQmJiKz+N1qU4M8alhnfdN2k6ygAQDB8r3FHD5ttS0jUupOdQMCp65CgmPOtXKvLDHwZxboJAAKVRIicY0tI1P5xJVL7Ng6wQWJ0WTkwlqOy/aph3QQAgaIlMiBrOEgCCWJZSQ4tkQAQLBMiuy9tGOu+mo25xk3ctW0sWiKTs+G4kdI8stjWgP7pMrLRWVbgHy2RAJAJXhZ0+vb6h96t75bIYcWjpaJkrK0hUe3DovLKOeNsDejfy+eOk/Zy31/LgldZMk7Ki0fZGgAgCEn9Wk0YvtiW4MeqD42V1soiWwN6ah1eJK86ywj8G886CQACl1SIHF95mC3Bj9YqJyR8mJCA/q1ylg0NkvCPdRIABC+5EMn/+pP28jlsrkRfukywu0Py2DoCAMFLKs3UDJsrxdFyW4MfzaOK5fUzx9ga4HrtrDEceJWk4ugwGe2skwAAwUoqREYjxTKucpGtwa+XzhsvHaWcfRwuXRZ0mUBydF0UjbAbAAAELentquyDlDw9+fiLF0ywNRS6Fy6cwMnFU8CmbADIjqRD5IThS2wJyXjxgvFSP6XM1lCodBnQZQHJm1C51JYAAEFKKUQWRUttDX61l0XliS9OtTUUqif+a6p0lCb9NSx4xdEy/kMLAFmS9K+XrrwnDT/S1pCMze+olg3Hc3WSQrXhhJGy+RiuqZ6KiVVH8J9ZAMiSlJpApo44xpaQrCe/MMVczQaFRT/zJy+nJTpVU6vfYUsAgKA56cVeAdG7NKJTjyt6N/1iBZ66/eNL5dmPT7Q1FAr9zPeP52CaVLEOAoDMsimxKw521R0pNYFVl001HVLzyrnjZPuS4baGfLdt6XDzmSM1I8qmOeufKbYGAAhayttRaQlIXWdRRJZfN4OTTRcA/YxXXDvDfOZIDbvTAEB2pR4iRxAi00HPHfm3b063NeSrFddMN581Uje1+p22BADIhpRD5OSqI6WsiCNM00GP1H2Bk5DnLT2p+Jaj+a6kg65zJlUdYWsAgGxIOURGIyUyfeQyW0Oqnv3URNmxmP0j8832w4bLs5/kAKp0mT7yOLPuAQBkT8ohUs0cdZItIVW6r9xfr58hzaPYPzJf6Gep+7yyH2T6zGKdAwBZl5YQqZuVyotH2BpSpad+efgHszl/ZB5oq4jKQzfN5nQ+aVRePNKcZBwAkF1pSSnRSLFMH3m8rSEddh5cIX/5zkzpLKb1KlfpZ/fIjbNk14IKOwTpMMNZ10QjRbYGAMiWtDV1sXkp/WqPqpa/fWO6CDky9zif2YpvTnc+wyo7AOnC7jMAEA5pC5EThx8uFSU1toZ0WffeUfLEf3JC91yjn9n6k0bZGtJF1zEThy+1NQBANvUMkfaSNlqIK3aXBxGJRGXO6NNsDem06uyx8vzFnPonV+hnpZ8Z0m9uzWlmXQMACJANgj3yoFNJ69p43pjTbQnp9swnJxEkc8Dzl0wwnxUyY17NGbYEAMi2tIZIvZbtxKrDbQ1pFXGC5KcmyRNXTGUfyTByPhP9bEyA5PPJCD0LBNfqB4DwSPt2ofk1H7AlZIJuJl2u117mqO3Q0M/ir9fNYBN2hs1j3QIAoZL2EKlXkigt4ojUTNKDbR7+wSzOIxkCeh5IPacnB9Fkll7mcIazbgEAhEfaU0hxtEzmjD7V1pApevqfP/50Lle2ySKd93/6yVxO4xOAOTWnSFG01NYAAGGQkaasBWPOtCVkkp6Q/N7bFpjrMiNYOs913utngMybzzoFAEInIyFy1LBZMqX6aFtDJunl9P700znywoUcuR2UFy6aYOY5lzIMxtTqY2RU+SxbAwCERcZ2qjt0/Pm2hEzrLIrIyk9Pkodvmi3NI9m8nSk6bx/64WxZ+e+TzDxHMFiXAEA4ZSxETq46UmqGzbM1BGHzMdVy7x0LZPsSNm+n27alw8283XJ0tR2CINRUzDOn9gEAhE/GQqSeLO/Q8efZMoKyf1yJ/Oknc+Tp/5jM0dtpoPPw6c9Nlgd/PMfMWwTr0HHaCkmrLwCEUUZTxsxRJ0pl6XhbQ1B0U+tL54+Xu393sGw4fqQdCr82nDDSmYcL5aXzxrP5Ogt03TFz1Am2BgAIm6h7IUT3aohdRbfq9ZIWjRTLIePOsTUEbf/4Unn02zPNvpL1U8rsUAylfmqZ2ffx0W/N5OCZLDpk3LlmHQIAyL6upBjrTocZ3945v+ZMKS+mNSybdF/Je367QJ69bKJ0lNKiNhCdN89+YqLcczf7PmabrjPmj+EKNQAQZhkPkSVFFbJ4/AW2hmzpKI3Kcx+fKHf9fpG8fO44aS9nf0mPzgudJzpvnrtUgzbzJtsWj79QSqKcgxMAwiyQX8uDx/4fqSipsTVkkx4c8tTlU+SOPy6S5y+eIK2VRXZM4dH3rvPgjj8tMvOEA2fCQdcVB4/9oK0BAMIqkBBZHC2XxeMvsjWEgV6y75lPTTIBSvvNIwpn3zM936Oe6/GOB+1759yaoXLYhIvMOgMAEG6BbbfTSyFWlnCkdti0VnW3xq345nRzTe5YHm7N1fe05e3V5j1qK6xedaZ1eOG2woaVriN0P2oAQPgFFheKoqWyZCKtkWGl50Nce8poefB/ZjuB8hBznsk9s4bZsblr9+xh5jyPtz94iDx082zzHjl/ZngtmXixWVcAAMIvMnv2nFhMnH/mqG330G3t6wHcXn3mrJmyYvly9xEp6Iy1yd2vniUNLbV2CELN+fhrVjfJ7Ad3y9Qn98modc12RLjtmVUum48eIWtPHS11c3M/CBeKqrLJ8qGDfyfRCPumAkBYLDvuOFm/br2TGCP6J86tRKLmNtgQqTbuXS6PrL/C1pBLhu1uk4nPNMrklQ0yyemqN7fYMdm1b1qZbDuiSmqPrHL6w6VpNCEkF50480aZPnKZrQEAwiBUIdJ5QvnjmstkW8Ozto5cVbmj1QmTjTLm9QMyYlOzjHS6qq2t+hFnhrPwNkwqlb0Hlcs+p9s1v0K2HjncnFQduU2vj33qnB87Jc5jCgBhErIQKVLXtFrue+1c5zU67RDki+KWTtNCOWJjixsqa1ukdH+HlOzvlJIDPfulTl+1VhRJW2VU2nr19RQ8DZPL3NA4vcxcSaa9jP0Z801EonLmgttl9LA5dggAICyGDpFxodELjuafqYvMSnOIVP9881p5fde9tgagUC0Yc5a8c9qXbQ0AECYaItc5ITISHyJNQZsAsuTISZ+S0qLhtgagEOk64IhJn7Q1AEAuyVqILC8eJUsnXmprAArR0okfN+sCAEDuyeoOZgvHni01w+bZGoBCUlMxz6wDAAC5KashMhoplncf9DWJRDhYAigk+p0/dtpVzjqAqwYBQK7KenobUzFfDh13nq0BKASHjjvftEQCAHJXKJoAdb+o6rIptgYgn1WXTTXfeQBAbgtFiCyOlsu7pn3V1gDks3dNu9L5zpfZGgAgV4VmZ0S9YsW8mjNsDUA+mj/mDPNdBwDkvlAd0fL2KZdLVekkWwOQT6pKJ8tRky+3NQBArgtViCwtqpRl06+RLJ4DHUAG6Hd62Yxvmu84ACA/RM3lDk2xu9STM6y/wRkyfvhiWTLxIlsDkA+WTLxYxlcutjUAQG7pmRHdUiycTX5LJlwqYysX2hqAXDaucpH5TgMA8ksoQ6SehPy46ddKcXSYHQIgF5VEK2SZ813mpOIAkH9Cu/OhnkvuHVO/aGsActExU6/gHLAAkKdCfQTL3JrTnO79tgYgl8yrOd18hwEA+Snkh0FH5B1T/6+MqVhg6wBywdiKg813V7/DAID8FPIQqVezKZMTZ94g5cUj7BAAYVZePFJOcL6zRdFSOwQAkI9CHyLV8NKJctyM6zl/JBBy+h3V7+rw0gl2CAAgX+VMKptcdZQcOfnfbQ1AGB05+dPOd/VttgYAyGc51bS3ePzHZOaoE20NQJjod3Px+PNtDQCQ73Js+3BEjj3oahlfeaitAwgDvRqNfjc5kAYACkfO7WSoB9qcNOu7UlU22Q4BkE16Hkj9Tup3EwBQOLpDZNz1sU0xrh425cWj5H2zb5Ky4mo7BEA26Hfw5Nk/MEdkAwDykJcHte908fEw51oiPSPKDpKTZn5XopESOwRAkPS7d9LM75nvIgCg8ORsiFQThi+RYw/6uq0BCNJ7pn/d+Q4eZmsAgEKT0yFSzR59srk+L4DgHDP1izJr1Mm2BgAoRDkfItXCsWfLkZM+Y2sAMultkz/jfOc+bGsAgEKVFyFSHTbhAlky4RJbA5AJSydeIovHX2BrAIBCljchUh0x6ROyaNw5tgYgnQ4Zd64cPvETtgYAKHR5FSL1RMdHT7lc5o8509YBpMOCMWfJ26d83ilxMnEAgCvPQqSKyDunfYkgCaSJfpfeMe3/OiUCJACgWx6GSP2pi8q7pn2ZTdtAinQTtn6X9DsFAEC8PP5lcDdtc7ANkBw9iIZN2ACAgfQMkXHXsjFFe4mb3BWRIyZ9ktP/AD7paXwOn/hJp0SABICCZ7Ng70hYENuo9PQ/nJAcSIyeSJzT+AAAhlIwOzrpCcmPm3Et19oGBqDfDf2OcCJxAEAiCmpveb1M26lzfiRlxdV2CACl3wn9bnApQwBAogoqRKoJw5fI6fN+JdVlU+wQoLDpd0G/E/rdAAAgUQUXItWIsoPMj+b4ykPtEKAwja9cbL4L+p0AAMCPggyRqrx4lJwy58cyc9SJdghQWHTZP9X5Duh3AQAAvwo2RKriaJkcP+N6czoTTqaMQqHL+tsmf9Ys+0XRUjsUAAB/SE7OT6qezuR9c34o5cUj7DAgP+ky/r45NzvL/MecGueABAAkjxBpTa46Sj4w/zYZU7HADgHyiy7buoxPrnqbHQIAQPIIkXGGl06U98/9X5lb8347BMgP82pON8u2LuMAAKQDIbIX3Ufs2IO+5nRXSXF0mB0K5KaSaIVZlt990FfZ/xEAkFZdIbL7eojdF8zufY3EwhExrZFnLbhDxlUussOA3KLL7pnOMuy2rLP/IwAgeT0zoVNz/miJHER12VQ5be4vZOnES8wRrUAu0GV16cRLzbLLSfUBAJlCMhpCNFIsh0/8pPOD/HOpKp1khwLhVFU6WU6b93Nnmf2EWXYBAMgUQmSCxg9fLGcuuFPmjznDDgHCRZdN3XytV6EBACDTCJE+lBZVyrumfdVc5YPNhAgL3e3i1Dk/McumLqMAAASBEJmESVVHylkL7jYnbI5EmIXIDl329ET5Zy24y1kmj7BDAQAIBgkoSXrJRL103BnzbpWaYfPsUCAYNRXzzLKnl+zUZREAgKARIlM0pmK+nDH/Fnn7lMultGi4HQpkhi5juqxpgNRlDwCAbCFEpoEeBXvIuHPlwwvvlwVjzuJ0QEg7XaYWjPmgWcZ0WYtGiuwYAACyg7STRuXFo+Sd074sZy64nX3UkDa6D64uU++c9iWzjAEAEAaEyAwYPWyOOYL7xJk3SlXZZDsU8EeXnRNnfsdZln5klikAAMLECZHdF7Ixpa5q93AkIyLTRy6TDx38O9M6WVky3g4HBqfLii4zuuxMH/keZwiXLAQAZEt8HtSy09lBtERmWDRSYvaT1H3Zjp5yhQwrGW3HAD1VlNTIMVOv6Nq3VpcdAADCihAZkKJoqSwad7acvfABOWry56S8eKQdg0Kny8JRkz/vhMc/yMKxZ5tlBQCAsCNEBqw4Wi6Hjj/PhEk9VUtlKZu5C5V+9roMnL3oAWeZ+KhZNgAAyBWEyCwpKaowp2o5e+EfZNn0azlheQHRz1o/c/3sdRkoiVbYMQAA5A5CZJbpOSZnjz5Zzlxwm5wy50cytfoYOwb5Rj9bPWpfP2v9zPWzBwAgVxEiQyMik6veJifPvkk+uOBus/9kWVG1HYdcpZ+hfpYfPPhu89nqOR852hoAkA8is2bPjsX0aG3nxhbE/DN15x7OzaxZs2TFiuXuIxCY9s4W2bh3hbxed69sa3jWDkUu0JPNz6v5gMwYeRwHygAActayZctk3br1TmKM6J/TOX39p31CZG7Y1/KmrK77vdM9IAfa6uxQhImeomduzWlOd7qMKJtmhwIAkLsIkXkkFuuUbY3Pyvo9j8iGvX+V5va9dgyyQU/PM2Pk8TJz1EkycfhS50vFHiIAgPxBiMxTnbEO2dqw0gTKjXuXS0tHvR2DTNL9HKePPE5maXCsOkKikSI7BgCA/EKILACdsTYnUD4jm+sfk837njCbv5E+unl66ohjZGr1O83+jlxNBgBQCAYPkbOcEOncafAQOdMJkSvMkyE31LdscQLl46bb5oRLPUgHiSuOlplWxqnV7zBdddkUOwYAgMLRHSJtgLQhUhMlIbIAaIDc0fiCbN//nGxvfFHe2v+yM6zZjoUqjg6TcZWLZMLwxTKhcqnTX8JR1QCAgkeIRA+6L+XuptUmUO7Y/4ITMF+U/W1v2bGFobJknIx3AuP4ysNMcBw9bC77NgIA0AshEkNqat/tBMu1ssfp6prWmP6e5nU5vxlcN0uPKp/lhMQ5TjdbRjmd9ocVj7b3AAAAAyFEIil6OqH61s2yt3mDNLRsk4bWWqe/1elrVyttHQfsPbNLr0NeVTrZ7comdvVHls+Q6tKpznLOaXcAAEgGIRIZEJOW9gYTKLUVs6V9rzlnZe9OTzukR453OF1np+3brsOpq6JoiTnaWbsi7Tt103c6PZ2Onouxd1fmdNqaWFU6ySlXOc/iLNAAACCtCJEAAADwbbAQyXY+AAAA+EaIBAAAgG+ESAAAAPhGiAQAAIBvUT12Ro+0dTt721XVQ2y8MQAAACgkbg6MS4JO0avREgkAAADfCJEAAADwjRAJAAAA3wiRAAAA8I0QCQAAAN8IkQAAAPCNEAkAAADfCJEAAADwjRAJAAAA3wiRAAAA8I0QCQAAAN/cENnr4tg9q71GAgAAoLBoHHS6+FRISyQAAAB8I0QCAADAN0IkAAAAfCNEAgAAwDdCJAAAAHwjRAIAAMA3QiQAAAB8I0QCAADAN0IkAAAAfCNEAgAAwLd+Q2TE9t1r23TVAAAAUIj6iYO0RAIAAMA3QiQAAAB8I0QCAADAN0IkAAAAfCNEAgAAwDdCJAAAAHwjRAIAAMA3QiQAAAB8I0QCAADAN0IkAAAAfOsOkeYSh+bG3np61gAAAABaIgEAAOAbIRIAAAC+ESIBAADgGyESAAAAvhEiAQAA4BshEgAAAL4RIgEAAOAbIRIAAAC+ESIBAADgGyESAAAAvhEiAQAA4FvPEMllsgEAABBP82GfjBijJRIAAAD+ESIBAADgGyESAAAAvhEiAQAA4BshEgAAAL4RIgEAAOAbIRIAAAC+ESIBAADgGyESAAAAvhEiAQAA4FtXiOy+mo1b6qr3ucwNAAAACk3vSEhLJAAAAHwjRAIAAMA3QiQAAAB8I0QCAADAN0IkAAAAfCNEAgAAwDdCJAAAAHwjRAIAAMA3QiQAAAB8I0QCAADAN0IkAAAAfDMhUq+FGNFCFy6YDQAAgN40Izqd80dLJAAAAHwjRAIAAMA3QiQAAAB8I0QCAADAN0IkAAAAfCNEAgAAwDdCJAAAAHwjRAIAAMA3QiQAAAB8I0QCAADANxMi9ZKHXOgQAAAAiaIlEgAAAL4RIgEAAOAbIRIAAAC+ESIBAADgGyESAAAAvhEiAQAA4BshEgAAAL4RIgEAAOAbIRIAAAC+ESIBAADgGyESAAAAvpkQyXWzAQAA0K+I7Ru24vRoiQQAAIBvhEgAAAD4RogEAACAb4RIAAAA+EaIBAAAgG+ESAAAAPhGiAQAAIBvhEgAAAD4RogEAACAb4RIAAAA+OaEyIEuesjFEAEAAApef5HQGUZLJAAAAHwjRAIAAMA3QiQAAAB8I0QCAADAN0IkAAAAfCNEAgAAwDdCJAAAAHwjRAIAAMA3QiQAAAB8I0QCAADANydERmyxNzt8oNEAAAAoMN3XQKQlEgAAAL4RIgEAAOAbIRIAAAC+ESIBAADgGyESAAAAvhEiAQAA4BshEgAAAL4RIgEAAOAbIRIAAAC+ESIBAADgGyESAAAAvjkhsvsaiAAAAEAPEdvvhZZIAAAA+EaIBAAAgG+ESAAAAPhGiAQAAIBvhEgAAAD4RogEAACAb4RIAAAA+EaIBAAAgG+ESAAAAPhGiAQAAIBvhEgAAAAMyb36Yfc1EAmRAAAA8I0QCQAAAN8IkQAAAPCNEAkAAADfCJEAAADwjRAJAAAA3wiRAAAA8I0QCQAAAN8IkQAAAPCNEAkAAADfCJEAAADwzQmRcVdC7L4BAAAA+uFmRVoiAQAA4BshEgAAAL4RIgEAAOAbIRIAAAC+ESIBAADgGyESAAAAvhEiAQAA4BshEgAAAL4RIgEAAOAbIRIAAAC+dYXImO27IlwBEQAAAD10RUOnQEskAAAAfCNEAgAAwDdCJAAAAHwjRAIAAMA3QiQAAAB86wqR7tE2/R2ObY/UBgAAQGHSMNgrEJoQaYaZG/dEP911AAAAFCqNg/03J0Z6b86Ou5M9caQOae/okJ07d7oDAAAAkPc0+7W3d9haX3EhMi5AurHTu5GW5hZZvWaNKQMAACD/afZrbmm2NZsTnZ4t9T2wxhuhvHJLa4usWb3a1gAAAJDvNPu1trSaspsJbTK0PTdE9pcc4+7Y2NAot912u2zZssUdBgAAgLylmU+zX2NjY8+caCt6G+0uOrempzdu3eu1tbXJ9u3b5Yc33+wOAAAAQN7SzKfZTzOg4WRCGwsdbqVodM3or9tqD92B0qXbxOt21cm6detk/vz5Ul1dbccAAAAgH2gL5HXXXS/LVyyXuro6MyyiodDpTM8ESFueNXtOzCHidOafHpU9UNkxYkS1TJgwQT567rkyZ84cmTt3rowdO9YdCQAAgJyiR2GvXr1a1qxZI7+57TbTAlm/r94d2SM4uuHRDPFC5ECh0YTLfoaXlBRL1fAqKS0rlfKycikqijpjzF0HMejIQSX9yORfMgXBv2huvc2sTG3gCmTRcxTG55kdZk2d/7LwNgtkzjqSfKcF85kE/6puAAvaIC/qjNKxehqflpZmaWltNftAtrW1uyHR3MEGxq6yWzdDTIh0fggGDo1mtOnrP/cvbrh709UfiBmfrCQfmo3XTEXS05v0tCb/JrMwe3LrM8k1BfI2MQTzw4CBmB/RoKXwksk/NHfeZzY+E7NpN2gpvOSg88gZZcbbYOiW3b67CdsbFj++uxyZrZuznedxQ6H+ZDr/3AHdZdPX8abUo9ynPwDzmKCl8JKDvZdBZeVtFsC0piILL5mKrMwjIEvMj1IhSPJtpjZ3svKiScnKcpD07ElhWkP2muZ5zV9837mNH6Z1b7g+xoy05R4hUn++3Ir7Q6Z/fcq9xus/d6D5G4h9ZHKSfGihvGayUprWZGXhJVN50RybXGRINr4r7ioaA8rC7EntJZN8dA4tBllZZlN4yaSnN59e04xy7uH0zf26+vHD3LKpadkU7fjZc+Y62VBXkM5q0vR0dTlw2f3r7pvHxg0biBkftBReMunpzcrbLIBpTUUWXjKVF83K5BaKXJq5Zk2d/7LzNrPwqll5yYBfNIWXC3xaVZIvmdK0ZuM1B2NDYZ9N12acWx90s7aGyL5hUXvm1h1m+k7B/Nm+vZ97f2/cINwnSop9pWAl+ZIpTWvAbzOXpjUVWVl+UpFjk5u8gnmjAXNW7oUgx96m+dENWsAvmWvvMenpzbHXHOzBZoxzY6arR0DsOczUtGyK3rCI/H+Oi9rTuVbVsAAAAABJRU5ErkJggg==;" vertex="1" parent="1">
          <mxGeometry x="1133" y="800" width="657" height="526" as="geometry" />
        </mxCell>
      </root>
    </mxGraphModel>
  </diagram>
</mxfile>
